<svg xmlns="http://www.w3.org/2000/svg" width="24" height="24" viewBox="0 0 24 24">
  <g id="Group_135" data-name="Group 135" transform="translate(-545 -334)">
    <rect id="Rectangle_172" data-name="Rectangle 172" width="24" height="24" rx="12" transform="translate(545 334)" fill="#2043f5"/>
    <path id="Path_191" data-name="Path 191" d="M.151,6.947A.491.491,0,0,0,.5,7.1a.477.477,0,0,0,.348-.149l2.7-2.7,2.7,2.7A.491.491,0,0,0,6.6,7.1a.477.477,0,0,0,.348-.149.505.505,0,0,0,0-.7L4.251,3.55,6.943.85a.505.505,0,0,0,0-.7.5.5,0,0,0-.7,0l-2.692,2.7L.847.154a.505.505,0,0,0-.7,0,.505.505,0,0,0,0,.7l2.7,2.692L.151,6.251A.48.48,0,0,0,.151,6.947Z" transform="translate(556.903 340.921) rotate(45)" fill="#fff"/>
  </g>
</svg>
